<mxfile host="Electron" agent="Mozilla/5.0 (Macintosh; Intel Mac OS X 10_15_7) AppleWebKit/537.36 (KHTML, like Gecko) draw.io/24.7.17 Chrome/128.0.6613.36 Electron/32.0.1 Safari/537.36" version="24.7.17">
  <diagram name="Page-1" id="-PCSbCQhCyE8xRuQ6Poj">
    <mxGraphModel dx="183" dy="137" grid="1" gridSize="10" guides="1" tooltips="1" connect="1" arrows="1" fold="1" page="1" pageScale="1" pageWidth="827" pageHeight="1169" math="0" shadow="0">
      <root>
        <mxCell id="0" />
        <mxCell id="1" parent="0" />
        <mxCell id="4Rrunp8gZ3IiEKXOH6XQ-45" value="" style="endArrow=none;html=1;rounded=0;" edge="1" parent="1">
          <mxGeometry width="50" height="50" relative="1" as="geometry">
            <mxPoint x="334.87" y="690" as="sourcePoint" />
            <mxPoint x="334.87" y="660" as="targetPoint" />
          </mxGeometry>
        </mxCell>
        <mxCell id="4Rrunp8gZ3IiEKXOH6XQ-46" value="" style="endArrow=none;html=1;rounded=0;" edge="1" parent="1">
          <mxGeometry width="50" height="50" relative="1" as="geometry">
            <mxPoint x="344.87" y="690" as="sourcePoint" />
            <mxPoint x="344.87" y="660" as="targetPoint" />
          </mxGeometry>
        </mxCell>
        <mxCell id="4Rrunp8gZ3IiEKXOH6XQ-47" value="" style="endArrow=none;html=1;rounded=0;" edge="1" parent="1">
          <mxGeometry width="50" height="50" relative="1" as="geometry">
            <mxPoint x="354.87" y="690" as="sourcePoint" />
            <mxPoint x="354.87" y="660" as="targetPoint" />
          </mxGeometry>
        </mxCell>
        <mxCell id="4Rrunp8gZ3IiEKXOH6XQ-48" value="" style="endArrow=none;html=1;rounded=0;" edge="1" parent="1">
          <mxGeometry width="50" height="50" relative="1" as="geometry">
            <mxPoint x="364.87" y="690" as="sourcePoint" />
            <mxPoint x="364.87" y="660" as="targetPoint" />
          </mxGeometry>
        </mxCell>
        <mxCell id="4Rrunp8gZ3IiEKXOH6XQ-1" value="" style="endArrow=none;html=1;rounded=0;" edge="1" parent="1">
          <mxGeometry width="50" height="50" relative="1" as="geometry">
            <mxPoint x="300" y="360" as="sourcePoint" />
            <mxPoint x="320" y="360" as="targetPoint" />
          </mxGeometry>
        </mxCell>
        <mxCell id="4Rrunp8gZ3IiEKXOH6XQ-2" value="" style="endArrow=none;html=1;rounded=0;" edge="1" parent="1">
          <mxGeometry width="50" height="50" relative="1" as="geometry">
            <mxPoint x="300" y="380" as="sourcePoint" />
            <mxPoint x="320" y="380" as="targetPoint" />
          </mxGeometry>
        </mxCell>
        <mxCell id="4Rrunp8gZ3IiEKXOH6XQ-3" value="" style="endArrow=none;html=1;rounded=0;" edge="1" parent="1">
          <mxGeometry width="50" height="50" relative="1" as="geometry">
            <mxPoint x="300" y="400" as="sourcePoint" />
            <mxPoint x="320" y="400" as="targetPoint" />
          </mxGeometry>
        </mxCell>
        <mxCell id="4Rrunp8gZ3IiEKXOH6XQ-4" value="" style="endArrow=none;html=1;rounded=0;" edge="1" parent="1">
          <mxGeometry width="50" height="50" relative="1" as="geometry">
            <mxPoint x="300" y="420" as="sourcePoint" />
            <mxPoint x="320" y="420" as="targetPoint" />
          </mxGeometry>
        </mxCell>
        <mxCell id="4Rrunp8gZ3IiEKXOH6XQ-5" value="" style="endArrow=none;html=1;rounded=0;" edge="1" parent="1">
          <mxGeometry width="50" height="50" relative="1" as="geometry">
            <mxPoint x="300" y="440" as="sourcePoint" />
            <mxPoint x="320" y="440" as="targetPoint" />
          </mxGeometry>
        </mxCell>
        <mxCell id="4Rrunp8gZ3IiEKXOH6XQ-6" value="" style="endArrow=none;html=1;rounded=0;" edge="1" parent="1">
          <mxGeometry width="50" height="50" relative="1" as="geometry">
            <mxPoint x="300" y="460" as="sourcePoint" />
            <mxPoint x="320" y="460" as="targetPoint" />
          </mxGeometry>
        </mxCell>
        <mxCell id="4Rrunp8gZ3IiEKXOH6XQ-7" value="" style="endArrow=none;html=1;rounded=0;" edge="1" parent="1">
          <mxGeometry width="50" height="50" relative="1" as="geometry">
            <mxPoint x="300" y="480" as="sourcePoint" />
            <mxPoint x="320" y="480" as="targetPoint" />
          </mxGeometry>
        </mxCell>
        <mxCell id="4Rrunp8gZ3IiEKXOH6XQ-8" value="" style="endArrow=none;html=1;rounded=0;" edge="1" parent="1">
          <mxGeometry width="50" height="50" relative="1" as="geometry">
            <mxPoint x="300" y="500" as="sourcePoint" />
            <mxPoint x="320" y="500" as="targetPoint" />
          </mxGeometry>
        </mxCell>
        <mxCell id="4Rrunp8gZ3IiEKXOH6XQ-9" value="" style="endArrow=none;html=1;rounded=0;" edge="1" parent="1">
          <mxGeometry width="50" height="50" relative="1" as="geometry">
            <mxPoint x="300" y="520" as="sourcePoint" />
            <mxPoint x="320" y="520" as="targetPoint" />
          </mxGeometry>
        </mxCell>
        <mxCell id="4Rrunp8gZ3IiEKXOH6XQ-10" value="" style="endArrow=none;html=1;rounded=0;" edge="1" parent="1">
          <mxGeometry width="50" height="50" relative="1" as="geometry">
            <mxPoint x="300" y="540" as="sourcePoint" />
            <mxPoint x="320" y="540" as="targetPoint" />
          </mxGeometry>
        </mxCell>
        <mxCell id="4Rrunp8gZ3IiEKXOH6XQ-11" value="" style="endArrow=none;html=1;rounded=0;" edge="1" parent="1">
          <mxGeometry width="50" height="50" relative="1" as="geometry">
            <mxPoint x="300" y="560" as="sourcePoint" />
            <mxPoint x="320" y="560" as="targetPoint" />
          </mxGeometry>
        </mxCell>
        <mxCell id="4Rrunp8gZ3IiEKXOH6XQ-12" value="" style="endArrow=none;html=1;rounded=0;" edge="1" parent="1">
          <mxGeometry width="50" height="50" relative="1" as="geometry">
            <mxPoint x="300" y="580" as="sourcePoint" />
            <mxPoint x="320" y="580" as="targetPoint" />
          </mxGeometry>
        </mxCell>
        <mxCell id="4Rrunp8gZ3IiEKXOH6XQ-13" value="" style="endArrow=none;html=1;rounded=0;" edge="1" parent="1">
          <mxGeometry width="50" height="50" relative="1" as="geometry">
            <mxPoint x="300" y="600" as="sourcePoint" />
            <mxPoint x="320" y="600" as="targetPoint" />
          </mxGeometry>
        </mxCell>
        <mxCell id="4Rrunp8gZ3IiEKXOH6XQ-14" value="" style="endArrow=none;html=1;rounded=0;" edge="1" parent="1">
          <mxGeometry width="50" height="50" relative="1" as="geometry">
            <mxPoint x="300" y="620" as="sourcePoint" />
            <mxPoint x="320" y="620" as="targetPoint" />
          </mxGeometry>
        </mxCell>
        <mxCell id="4Rrunp8gZ3IiEKXOH6XQ-15" value="" style="endArrow=none;html=1;rounded=0;" edge="1" parent="1">
          <mxGeometry width="50" height="50" relative="1" as="geometry">
            <mxPoint x="300" y="640" as="sourcePoint" />
            <mxPoint x="320" y="640" as="targetPoint" />
          </mxGeometry>
        </mxCell>
        <mxCell id="4Rrunp8gZ3IiEKXOH6XQ-17" value="mux 16:1" style="shape=trapezoid;perimeter=trapezoidPerimeter;whiteSpace=wrap;html=1;fixedSize=1;rotation=90;" vertex="1" parent="1">
          <mxGeometry x="180" y="480" width="340" height="60" as="geometry" />
        </mxCell>
        <mxCell id="4Rrunp8gZ3IiEKXOH6XQ-16" value="" style="endArrow=none;html=1;rounded=0;" edge="1" parent="1">
          <mxGeometry width="50" height="50" relative="1" as="geometry">
            <mxPoint x="300" y="660" as="sourcePoint" />
            <mxPoint x="320" y="660" as="targetPoint" />
          </mxGeometry>
        </mxCell>
        <mxCell id="4Rrunp8gZ3IiEKXOH6XQ-18" value="" style="endArrow=none;html=1;rounded=0;exitX=0.5;exitY=0;exitDx=0;exitDy=0;" edge="1" parent="1" source="4Rrunp8gZ3IiEKXOH6XQ-17">
          <mxGeometry width="50" height="50" relative="1" as="geometry">
            <mxPoint x="310" y="510" as="sourcePoint" />
            <mxPoint x="400" y="510" as="targetPoint" />
          </mxGeometry>
        </mxCell>
        <mxCell id="4Rrunp8gZ3IiEKXOH6XQ-19" value="&lt;font style=&quot;font-size: 8px;&quot;&gt;x&lt;sub&gt;0&lt;/sub&gt;&lt;/font&gt;" style="text;html=1;align=center;verticalAlign=middle;whiteSpace=wrap;rounded=0;" vertex="1" parent="1">
          <mxGeometry x="290" y="350" width="10" as="geometry" />
        </mxCell>
        <mxCell id="4Rrunp8gZ3IiEKXOH6XQ-23" value="&lt;font style=&quot;font-size: 8px;&quot;&gt;x&lt;/font&gt;&lt;font style=&quot;font-size: 6.66667px;&quot;&gt;&lt;sub&gt;1&lt;/sub&gt;&lt;/font&gt;" style="text;html=1;align=center;verticalAlign=middle;whiteSpace=wrap;rounded=0;" vertex="1" parent="1">
          <mxGeometry x="290" y="370" width="10" as="geometry" />
        </mxCell>
        <mxCell id="4Rrunp8gZ3IiEKXOH6XQ-24" value="&lt;font style=&quot;font-size: 8px;&quot;&gt;x&lt;sub&gt;2&lt;/sub&gt;&lt;/font&gt;" style="text;html=1;align=center;verticalAlign=middle;whiteSpace=wrap;rounded=0;" vertex="1" parent="1">
          <mxGeometry x="290" y="390" width="10" as="geometry" />
        </mxCell>
        <mxCell id="4Rrunp8gZ3IiEKXOH6XQ-25" value="&lt;font style=&quot;font-size: 8px;&quot;&gt;x&lt;sub&gt;3&lt;/sub&gt;&lt;/font&gt;" style="text;html=1;align=center;verticalAlign=middle;whiteSpace=wrap;rounded=0;" vertex="1" parent="1">
          <mxGeometry x="290" y="410" width="10" as="geometry" />
        </mxCell>
        <mxCell id="4Rrunp8gZ3IiEKXOH6XQ-26" value="&lt;font style=&quot;font-size: 8px;&quot;&gt;x&lt;sub&gt;4&lt;/sub&gt;&lt;/font&gt;" style="text;html=1;align=center;verticalAlign=middle;whiteSpace=wrap;rounded=0;" vertex="1" parent="1">
          <mxGeometry x="290" y="430" width="10" as="geometry" />
        </mxCell>
        <mxCell id="4Rrunp8gZ3IiEKXOH6XQ-27" value="&lt;font style=&quot;font-size: 8px;&quot;&gt;x&lt;sub&gt;5&lt;/sub&gt;&lt;/font&gt;" style="text;html=1;align=center;verticalAlign=middle;whiteSpace=wrap;rounded=0;" vertex="1" parent="1">
          <mxGeometry x="290" y="450" width="10" as="geometry" />
        </mxCell>
        <mxCell id="4Rrunp8gZ3IiEKXOH6XQ-28" value="&lt;font style=&quot;font-size: 8px;&quot;&gt;x&lt;sub&gt;6&lt;/sub&gt;&lt;/font&gt;" style="text;html=1;align=center;verticalAlign=middle;whiteSpace=wrap;rounded=0;" vertex="1" parent="1">
          <mxGeometry x="290" y="470" width="10" as="geometry" />
        </mxCell>
        <mxCell id="4Rrunp8gZ3IiEKXOH6XQ-29" value="&lt;font style=&quot;font-size: 8px;&quot;&gt;x&lt;sub&gt;7&lt;/sub&gt;&lt;/font&gt;" style="text;html=1;align=center;verticalAlign=middle;whiteSpace=wrap;rounded=0;" vertex="1" parent="1">
          <mxGeometry x="290" y="490" width="10" as="geometry" />
        </mxCell>
        <mxCell id="4Rrunp8gZ3IiEKXOH6XQ-30" value="&lt;font style=&quot;font-size: 8px;&quot;&gt;x&lt;sub&gt;8&lt;/sub&gt;&lt;/font&gt;" style="text;html=1;align=center;verticalAlign=middle;whiteSpace=wrap;rounded=0;" vertex="1" parent="1">
          <mxGeometry x="290" y="510" width="10" as="geometry" />
        </mxCell>
        <mxCell id="4Rrunp8gZ3IiEKXOH6XQ-31" value="&lt;font style=&quot;font-size: 8px;&quot;&gt;x&lt;sub&gt;9&lt;/sub&gt;&lt;/font&gt;" style="text;html=1;align=center;verticalAlign=middle;whiteSpace=wrap;rounded=0;" vertex="1" parent="1">
          <mxGeometry x="290" y="530" width="10" as="geometry" />
        </mxCell>
        <mxCell id="4Rrunp8gZ3IiEKXOH6XQ-32" value="&lt;font style=&quot;font-size: 8px;&quot;&gt;x&lt;sub&gt;10&lt;/sub&gt;&lt;/font&gt;" style="text;html=1;align=center;verticalAlign=middle;whiteSpace=wrap;rounded=0;" vertex="1" parent="1">
          <mxGeometry x="290" y="550" width="10" as="geometry" />
        </mxCell>
        <mxCell id="4Rrunp8gZ3IiEKXOH6XQ-33" value="&lt;font style=&quot;font-size: 8px;&quot;&gt;x&lt;sub&gt;11&lt;/sub&gt;&lt;/font&gt;" style="text;html=1;align=center;verticalAlign=middle;whiteSpace=wrap;rounded=0;" vertex="1" parent="1">
          <mxGeometry x="290" y="570" width="10" as="geometry" />
        </mxCell>
        <mxCell id="4Rrunp8gZ3IiEKXOH6XQ-34" value="&lt;font style=&quot;font-size: 8px;&quot;&gt;x&lt;sub&gt;12&lt;/sub&gt;&lt;/font&gt;" style="text;html=1;align=center;verticalAlign=middle;whiteSpace=wrap;rounded=0;" vertex="1" parent="1">
          <mxGeometry x="290" y="590" width="10" as="geometry" />
        </mxCell>
        <mxCell id="4Rrunp8gZ3IiEKXOH6XQ-35" value="&lt;font style=&quot;font-size: 8px;&quot;&gt;x&lt;sub&gt;13&lt;/sub&gt;&lt;/font&gt;" style="text;html=1;align=center;verticalAlign=middle;whiteSpace=wrap;rounded=0;" vertex="1" parent="1">
          <mxGeometry x="290" y="610" width="10" as="geometry" />
        </mxCell>
        <mxCell id="4Rrunp8gZ3IiEKXOH6XQ-36" value="&lt;font style=&quot;font-size: 8px;&quot;&gt;x&lt;sub&gt;14&lt;/sub&gt;&lt;/font&gt;" style="text;html=1;align=center;verticalAlign=middle;whiteSpace=wrap;rounded=0;" vertex="1" parent="1">
          <mxGeometry x="290" y="630" width="10" as="geometry" />
        </mxCell>
        <mxCell id="4Rrunp8gZ3IiEKXOH6XQ-37" value="&lt;font style=&quot;font-size: 8px;&quot;&gt;x&lt;sub&gt;15&lt;/sub&gt;&lt;/font&gt;" style="text;html=1;align=center;verticalAlign=middle;whiteSpace=wrap;rounded=0;" vertex="1" parent="1">
          <mxGeometry x="290" y="650" width="10" as="geometry" />
        </mxCell>
        <mxCell id="4Rrunp8gZ3IiEKXOH6XQ-40" value="&lt;span style=&quot;font-size: 8px;&quot;&gt;u&lt;/span&gt;" style="text;html=1;align=center;verticalAlign=middle;whiteSpace=wrap;rounded=0;" vertex="1" parent="1">
          <mxGeometry x="390" y="500" width="10" as="geometry" />
        </mxCell>
        <mxCell id="4Rrunp8gZ3IiEKXOH6XQ-50" value="&lt;font style=&quot;&quot;&gt;&lt;span style=&quot;font-size: 8px;&quot;&gt;&lt;sub&gt;c0&lt;/sub&gt;&lt;/span&gt;&lt;/font&gt;" style="text;html=1;align=center;verticalAlign=middle;whiteSpace=wrap;rounded=0;" vertex="1" parent="1">
          <mxGeometry x="330" y="690" width="10" as="geometry" />
        </mxCell>
        <mxCell id="4Rrunp8gZ3IiEKXOH6XQ-53" value="&lt;font style=&quot;&quot;&gt;&lt;span style=&quot;font-size: 8px;&quot;&gt;&lt;sub&gt;c1&lt;/sub&gt;&lt;/span&gt;&lt;/font&gt;" style="text;html=1;align=center;verticalAlign=middle;whiteSpace=wrap;rounded=0;" vertex="1" parent="1">
          <mxGeometry x="340" y="690" width="10" as="geometry" />
        </mxCell>
        <mxCell id="4Rrunp8gZ3IiEKXOH6XQ-54" value="&lt;font style=&quot;&quot;&gt;&lt;span style=&quot;font-size: 8px;&quot;&gt;&lt;sub&gt;c2&lt;/sub&gt;&lt;/span&gt;&lt;/font&gt;" style="text;html=1;align=center;verticalAlign=middle;whiteSpace=wrap;rounded=0;" vertex="1" parent="1">
          <mxGeometry x="350" y="690" width="10" as="geometry" />
        </mxCell>
        <mxCell id="4Rrunp8gZ3IiEKXOH6XQ-55" value="&lt;font style=&quot;&quot;&gt;&lt;span style=&quot;font-size: 8px;&quot;&gt;&lt;sub&gt;c3&lt;/sub&gt;&lt;/span&gt;&lt;/font&gt;" style="text;html=1;align=center;verticalAlign=middle;whiteSpace=wrap;rounded=0;" vertex="1" parent="1">
          <mxGeometry x="360" y="690" width="10" as="geometry" />
        </mxCell>
      </root>
    </mxGraphModel>
  </diagram>
</mxfile>
